<?xml version="1.0" ?><svg id="Layer_1" style="enable-background:new 0 0 100 100;" version="1.1" viewBox="0 0 100 100" xml:space="preserve" xmlns="http://www.w3.org/2000/svg" xmlns:xlink="http://www.w3.org/1999/xlink"><path d="M50,3C24.084,3,3,24.084,3,50s21.084,47,47,47s47-21.084,47-47S75.916,3,50,3z M50,93C26.29,93,7,73.71,7,50S26.29,7,50,7  s43,19.29,43,43S73.71,93,50,93z"/><path d="M63.332,17.19L50,30.521L36.668,17.19c-0.78-0.781-2.048-0.781-2.828,0L17.19,33.84c-0.781,0.781-0.781,2.047,0,2.828  L30.521,50L17.19,63.332c-0.781,0.781-0.781,2.047,0,2.828l16.65,16.65c0.78,0.781,2.048,0.781,2.828,0L50,69.479L63.332,82.81  c0.39,0.391,0.902,0.586,1.414,0.586S65.77,83.2,66.16,82.81l16.65-16.65c0.781-0.781,0.781-2.047,0-2.828L69.479,50L82.81,36.668  c0.781-0.781,0.781-2.047,0-2.828L66.16,17.19C65.379,16.409,64.112,16.409,63.332,17.19z M65.236,48.586  c-0.781,0.781-0.781,2.047,0,2.828l13.331,13.332L64.746,78.567L51.414,65.236c-0.39-0.391-0.902-0.586-1.414-0.586  s-1.024,0.195-1.414,0.586L35.254,78.567L21.433,64.746l13.331-13.332c0.781-0.781,0.781-2.047,0-2.828L21.433,35.254l13.821-13.821  l13.332,13.331c0.78,0.781,2.048,0.781,2.828,0l13.332-13.331l13.821,13.821L65.236,48.586z"/></svg>