<?xml version="1.0" ?><!DOCTYPE svg  PUBLIC '-//W3C//DTD SVG 1.1//EN'  'http://www.w3.org/Graphics/SVG/1.1/DTD/svg11.dtd'><svg enable-background="new 0 0 64 64" height="64px" id="Layer_1" version="1.1" viewBox="0 0 64 64" width="64px" xml:space="preserve" xmlns="http://www.w3.org/2000/svg" xmlns:xlink="http://www.w3.org/1999/xlink"><path d="M62.368,9.597c1.384,1.344,1.415,3.552,0.072,4.935L15.435,62.94c-1.344,1.384-3.552,1.417-4.935,0.073l-8.868-8.611  c-1.383-1.343-1.416-3.551-0.072-4.935L48.565,1.059c1.343-1.383,3.553-1.415,4.936-0.072L62.368,9.597z"/><path d="M63.014,53.501c1.344-1.385,1.311-3.593-0.073-4.936L14.532,1.56c-1.383-1.343-3.591-1.312-4.935,0.073L0.986,10.5  c-1.343,1.383-1.311,3.592,0.072,4.936L49.468,62.44c1.384,1.343,3.592,1.311,4.935-0.072L63.014,53.501z"/></svg>