<?xml version="1.0" ?><svg id="Layer_1" style="enable-background:new 0 0 512 512;" version="1.1" viewBox="0 0 512 512" xml:space="preserve" xmlns="http://www.w3.org/2000/svg" xmlns:xlink="http://www.w3.org/1999/xlink"><g><path d="M491,176.2L261.3,334.6c-1.6,1.1-3.5,1.7-5.3,1.7s-3.7-0.6-5.3-1.7L21,176.2c-9.1,7.2-15,18.3-15,30.9v239.7   c0,21.7,17.6,39.3,39.3,39.3h421.3c21.7,0,39.3-17.6,39.3-39.3V207C506,194.5,500.1,183.4,491,176.2z M187.1,330.2L71,446.3   c-0.9,0.9-2.1,1.4-3.3,1.4c-1.2,0-2.4-0.5-3.3-1.4c-1.8-1.8-1.8-4.8,0-6.6l116.1-116.1c1.8-1.8,4.8-1.8,6.6,0   C189,325.4,189,328.4,187.1,330.2z M447.6,446.3c-0.9,0.9-2.1,1.4-3.3,1.4s-2.4-0.5-3.3-1.4L324.9,330.2c-1.8-1.8-1.8-4.8,0-6.6   s4.8-1.8,6.6,0l116.1,116.1C449.4,441.5,449.4,444.5,447.6,446.3z"/><g><rect height="14" id="XMLID_6_" width="216" x="148" y="209.2"/><polygon id="XMLID_5_" points="148,241 162.3,250.9 349.7,250.9 364,241 364,236.9 148,236.9   "/><rect height="14" id="XMLID_4_" width="216" x="148" y="181.5"/><path d="M464,163.8L271,30.6c-9.1-6.2-21-6.2-30.1,0L48,163.8c-2.9,2-2.9,6.2,0,8.2l64,44.2v-77.8h288v77.8l64-44.2    C466.9,170,466.9,165.8,464,163.8z" id="XMLID_3_"/><polygon id="XMLID_2_" points="182.1,264.5 202.4,278.5 309.6,278.5 329.9,264.5   "/><path d="M289.8,292.2h-67.5l18.7,12.9c0.6,0.4,1.1,0.7,1.7,1.1h26.7c0.6-0.3,1.1-0.7,1.7-1.1L289.8,292.2z" id="XMLID_1_"/></g></g></svg>